<?xml version="1.0" encoding="utf-8"?>
<!-- Generator: Adobe Illustrator 22.1.0, SVG Export Plug-In . SVG Version: 6.00 Build 0)  -->
<svg version="1.1" id="Camada_1" xmlns="http://www.w3.org/2000/svg" xmlns:xlink="http://www.w3.org/1999/xlink" x="0px" y="0px"
	 viewBox="0 0 142.8 144.2" style="enable-background:new 0 0 142.8 144.2;" xml:space="preserve">
<style type="text/css">
	.st0{clip-path:url(#SVGID_2_);fill:url(#SVGID_3_);}
	.st1{opacity:0.38;clip-path:url(#SVGID_2_);fill:url(#SVGID_4_);}
	.st2{clip-path:url(#SVGID_2_);fill:url(#SVGID_5_);}
	.st3{fill:#4D4D4D;}
	.st4{clip-path:url(#SVGID_7_);}
	.st5{fill:#151515;}
	.st6{fill:url(#SVGID_8_);}
	.st7{fill:url(#SVGID_9_);}
	.st8{fill:#C85D64;}
	.st9{fill:#CE7358;}
	.st10{fill:#C34344;}
	.st11{fill:#D68C6A;}
	.st12{fill:#D2804A;}
	.st13{fill:url(#SVGID_10_);}
	.st14{fill:none;stroke:#151515;stroke-width:8;stroke-linejoin:round;stroke-miterlimit:10;}
	.st15{fill:none;stroke:#000000;stroke-width:9;stroke-miterlimit:10;}
	.st16{fill:url(#SVGID_11_);}
	.st17{fill:url(#SVGID_12_);}
	.st18{fill:url(#SVGID_13_);}
	.st19{fill:none;stroke:#FFFFFF;stroke-width:5;stroke-miterlimit:10;}
	.st20{fill:#FFFFFF;}
	.st21{fill:none;stroke:#000000;stroke-width:11;stroke-miterlimit:10;}
	.st22{fill:none;stroke:#000000;stroke-width:8;stroke-miterlimit:10;}
	.st23{fill:url(#SVGID_14_);}
	.st24{fill:none;stroke:#666666;stroke-miterlimit:10;}
	.st25{fill:#111111;}
	.st26{fill:none;stroke:#111111;stroke-width:11;stroke-miterlimit:10;}
	.st27{fill:none;stroke:#111111;stroke-width:9;stroke-miterlimit:10;}
</style>
<g>
	<g>
		<g>
			<path class="st25" d="M121.1,144.2H21.7C9.7,144.2,0,134.5,0,122.6V31.1C0,19.1,9.7,9.4,21.7,9.4h99.4c11.9,0,21.7,9.7,21.7,21.7
				v91.5C142.8,134.5,133.1,144.2,121.1,144.2z M21.7,23c-4.4,0-8,3.6-8,8v91.5c0,4.4,3.6,8,8,8h99.4c4.4,0,8-3.6,8-8V31.1
				c0-4.4-3.6-8-8-8H21.7z"/>
		</g>
	</g>
	<g>
		<g>
			<g>
				<rect x="39.5" y="110.4" class="st25" width="63.8" height="9.9"/>
			</g>
		</g>
		<g>
			<g>
				<rect x="32.7" y="92.8" class="st25" width="77.4" height="9.9"/>
			</g>
		</g>
	</g>
	<g>
		<g>
			<path class="st25" d="M25.5,28.3V3.9c0-2.1,1.7-3.9,3.9-3.9l2.4,0c2.1,0,3.9,1.7,3.9,3.9v24.5c0,2.1-1.7,3.9-3.9,3.9h-2.4
				C27.2,32.2,25.5,30.5,25.5,28.3z"/>
		</g>
		<g>
			<path class="st25" d="M52.7,28.3V3.9c0-2.1,1.7-3.9,3.9-3.9l2.4,0c2.1,0,3.9,1.7,3.9,3.9v24.5c0,2.1-1.7,3.9-3.9,3.9h-2.4
				C54.5,32.2,52.7,30.5,52.7,28.3z"/>
		</g>
		<g>
			<path class="st25" d="M80,28.3V3.9C80,1.7,81.7,0,83.8,0l2.4,0C88.3,0,90,1.7,90,3.9v24.5c0,2.1-1.7,3.9-3.9,3.9h-2.4
				C81.7,32.2,80,30.5,80,28.3z"/>
		</g>
		<g>
			<path class="st25" d="M107.2,28.3V3.9c0-2.1,1.7-3.9,3.9-3.9l2.4,0c2.1,0,3.9,1.7,3.9,3.9v24.5c0,2.1-1.7,3.9-3.9,3.9h-2.4
				C108.9,32.2,107.2,30.5,107.2,28.3z"/>
		</g>
	</g>
	<g>
		<g>
			<g>
				<g>
					<path class="st25" d="M69.1,83v-5.7c-7.6-1.2-11-6.8-11.4-11.2l7.4-1.7c0.3,3.1,2.4,5.9,7,5.9c2.7,0,4.6-1.3,4.6-3.4
						c0-1.6-1.2-2.6-3.3-3.1l-4.8-1.1c-6-1.5-9.7-5.1-9.7-10.2c0-6,4.5-10.2,10.2-11.1v-5.8h6.2v6c5.9,1.3,8.6,5.5,9.3,9.2l-7.5,2
						c-0.3-1.7-1.2-4.5-5.5-4.5c-3,0-4.5,1.8-4.5,3.5c0,1.5,1.1,2.6,3.2,3.1l4.7,1c7.2,1.6,10,5.8,10,10.6c0,4.9-3.5,9.6-9.8,10.7
						V83H69.1z"/>
				</g>
			</g>
		</g>
	</g>
</g>
</svg>
