<?xml version="1.0" encoding="utf-8"?>
<!-- Generator: Adobe Illustrator 22.1.0, SVG Export Plug-In . SVG Version: 6.00 Build 0)  -->
<svg version="1.1" id="Camada_1" xmlns="http://www.w3.org/2000/svg" xmlns:xlink="http://www.w3.org/1999/xlink" x="0px" y="0px"
	 viewBox="0 0 121.8 142.2" style="enable-background:new 0 0 121.8 142.2;" xml:space="preserve">
<style type="text/css">
	.st0{clip-path:url(#SVGID_2_);fill:url(#SVGID_3_);}
	.st1{opacity:0.38;clip-path:url(#SVGID_2_);fill:url(#SVGID_4_);}
	.st2{clip-path:url(#SVGID_2_);fill:url(#SVGID_5_);}
	.st3{fill:#4D4D4D;}
	.st4{clip-path:url(#SVGID_7_);}
	.st5{fill:#151515;}
	.st6{fill:url(#SVGID_8_);}
	.st7{fill:url(#SVGID_9_);}
	.st8{fill:#C85D64;}
	.st9{fill:#CE7358;}
	.st10{fill:#C34344;}
	.st11{fill:#D68C6A;}
	.st12{fill:#D2804A;}
	.st13{fill:url(#SVGID_10_);}
	.st14{fill:none;stroke:#151515;stroke-width:8;stroke-linejoin:round;stroke-miterlimit:10;}
	.st15{fill:none;stroke:#000000;stroke-width:9;stroke-miterlimit:10;}
	.st16{fill:url(#SVGID_11_);}
	.st17{fill:url(#SVGID_12_);}
	.st18{fill:url(#SVGID_13_);}
	.st19{fill:none;stroke:#FFFFFF;stroke-width:5;stroke-miterlimit:10;}
	.st20{fill:#FFFFFF;}
	.st21{fill:none;stroke:#000000;stroke-width:11;stroke-miterlimit:10;}
	.st22{fill:none;stroke:#000000;stroke-width:8;stroke-miterlimit:10;}
	.st23{fill:url(#SVGID_14_);}
	.st24{fill:none;stroke:#666666;stroke-miterlimit:10;}
	.st25{fill:#111111;}
	.st26{fill:none;stroke:#111111;stroke-width:11;stroke-miterlimit:10;}
	.st27{fill:none;stroke:#111111;stroke-width:9;stroke-miterlimit:10;}
</style>
<g>
	<g>
		<g>
			<path class="st25" d="M99,142.2H22.8C10.2,142.2,0,131.9,0,119.3V22.8C0,10.2,10.2,0,22.8,0H99c12.6,0,22.8,10.2,22.8,22.8v96.5
				C121.8,131.9,111.6,142.2,99,142.2z M22.8,14.4c-4.7,0-8.5,3.8-8.5,8.5v96.5c0,4.7,3.8,8.5,8.5,8.5H99c4.7,0,8.5-3.8,8.5-8.5
				V22.8c0-4.7-3.8-8.5-8.5-8.5H22.8z"/>
		</g>
	</g>
	<g>
		<g>
			<g>
				<g>
					<path class="st25" d="M30.1,28.9c0.9-1.4,2.4-2.3,4.6-2.3c2.2,0,3.7,1,4.6,2.3c0.9,1.4,1.2,3.1,1.2,4.8c0,1.7-0.3,3.4-1.2,4.8
						c-0.9,1.3-2.4,2.3-4.6,2.3c-2.2,0-3.7-1-4.6-2.3c-0.9-1.4-1.2-3.1-1.2-4.8C28.9,32,29.2,30.3,30.1,28.9z M32.7,36.6
						c0.4,0.8,1,1.3,2,1.3c1,0,1.6-0.5,2-1.3c0.4-0.8,0.5-1.9,0.5-2.9c0-1.1-0.1-2.2-0.5-2.9c-0.4-0.8-1-1.3-2-1.3
						c-1,0-1.6,0.5-2,1.3c-0.4,0.8-0.5,1.9-0.5,2.9C32.2,34.8,32.4,35.8,32.7,36.6z"/>
				</g>
			</g>
			<g>
				<g>
					<path class="st25" d="M44.9,40.4v-8.8h-3.2v-2.2c2,0,3.5-1.2,3.7-2.5h2.8v13.5H44.9z"/>
				</g>
			</g>
			<g>
				<g>
					<path class="st25" d="M51.9,28.9c0.9-1.4,2.4-2.3,4.6-2.3c2.2,0,3.7,1,4.6,2.3c0.9,1.4,1.2,3.1,1.2,4.8c0,1.7-0.3,3.4-1.2,4.8
						c-0.9,1.3-2.4,2.3-4.6,2.3c-2.2,0-3.7-1-4.6-2.3c-0.9-1.4-1.2-3.1-1.2-4.8C50.8,32,51,30.3,51.9,28.9z M54.6,36.6
						c0.4,0.8,1,1.3,2,1.3c1,0,1.6-0.5,2-1.3c0.4-0.8,0.5-1.9,0.5-2.9c0-1.1-0.1-2.2-0.5-2.9c-0.4-0.8-1-1.3-2-1.3
						c-1,0-1.6,0.5-2,1.3c-0.4,0.8-0.5,1.9-0.5,2.9C54.1,34.8,54.2,35.8,54.6,36.6z"/>
				</g>
			</g>
			<g>
				<g>
					<path class="st25" d="M66.7,40.4v-8.8h-3.2v-2.2c2,0,3.5-1.2,3.7-2.5H70v13.5H66.7z"/>
				</g>
			</g>
			<g>
				<g>
					<path class="st25" d="M75.5,40.4v-8.8h-3.2v-2.2c2,0,3.5-1.2,3.7-2.5h2.8v13.5H75.5z"/>
				</g>
			</g>
			<g>
				<g>
					<path class="st25" d="M82.5,28.9c0.9-1.4,2.4-2.3,4.6-2.3c2.2,0,3.7,1,4.6,2.3c0.9,1.4,1.2,3.1,1.2,4.8c0,1.7-0.3,3.4-1.2,4.8
						c-0.9,1.3-2.4,2.3-4.6,2.3c-2.2,0-3.7-1-4.6-2.3c-0.9-1.4-1.2-3.1-1.2-4.8C81.3,32,81.5,30.3,82.5,28.9z M85.1,36.6
						c0.4,0.8,1,1.3,2,1.3c1,0,1.6-0.5,2-1.3c0.4-0.8,0.5-1.9,0.5-2.9c0-1.1-0.1-2.2-0.5-2.9c-0.4-0.8-1-1.3-2-1.3
						c-1,0-1.6,0.5-2,1.3c-0.4,0.8-0.5,1.9-0.5,2.9C84.6,34.8,84.7,35.8,85.1,36.6z"/>
				</g>
			</g>
		</g>
		<g>
			<g>
				<g>
					<rect x="29.6" y="52.2" class="st25" width="62.6" height="10.4"/>
				</g>
			</g>
			<g>
				<g>
					<rect x="29.6" y="72" class="st25" width="51.3" height="10.4"/>
				</g>
			</g>
			<g>
				<g>
					<rect x="29.6" y="110.4" class="st25" width="51.3" height="10.4"/>
				</g>
			</g>
			<g>
				<g>
					<rect x="29.6" y="91.9" class="st25" width="62.3" height="10.4"/>
				</g>
			</g>
		</g>
	</g>
</g>
</svg>
