<?xml version="1.0" encoding="utf-8"?>
<!-- Generator: Adobe Illustrator 22.1.0, SVG Export Plug-In . SVG Version: 6.00 Build 0)  -->
<svg version="1.1" id="Camada_1" xmlns="http://www.w3.org/2000/svg" xmlns:xlink="http://www.w3.org/1999/xlink" x="0px" y="0px"
	 viewBox="0 0 102 151.2" style="enable-background:new 0 0 102 151.2;" xml:space="preserve">
<style type="text/css">
	.st0{clip-path:url(#SVGID_2_);fill:url(#SVGID_3_);}
	.st1{opacity:0.38;clip-path:url(#SVGID_2_);fill:url(#SVGID_4_);}
	.st2{clip-path:url(#SVGID_2_);fill:url(#SVGID_5_);}
	.st3{fill:#4D4D4D;}
	.st4{clip-path:url(#SVGID_7_);}
	.st5{fill:#151515;}
	.st6{fill:url(#SVGID_8_);}
	.st7{fill:url(#SVGID_9_);}
	.st8{fill:#C85D64;}
	.st9{fill:#CE7358;}
	.st10{fill:#C34344;}
	.st11{fill:#D68C6A;}
	.st12{fill:#D2804A;}
	.st13{fill:url(#SVGID_10_);}
	.st14{fill:none;stroke:#151515;stroke-width:8;stroke-linejoin:round;stroke-miterlimit:10;}
	.st15{fill:none;stroke:#000000;stroke-width:9;stroke-miterlimit:10;}
	.st16{fill:url(#SVGID_11_);}
	.st17{fill:url(#SVGID_12_);}
	.st18{fill:url(#SVGID_13_);}
	.st19{fill:none;stroke:#FFFFFF;stroke-width:5;stroke-miterlimit:10;}
	.st20{fill:#FFFFFF;}
	.st21{fill:none;stroke:#000000;stroke-width:11;stroke-miterlimit:10;}
	.st22{fill:none;stroke:#000000;stroke-width:8;stroke-miterlimit:10;}
	.st23{fill:url(#SVGID_14_);}
	.st24{fill:none;stroke:#666666;stroke-miterlimit:10;}
	.st25{fill:#111111;}
	.st26{fill:none;stroke:#111111;stroke-width:11;stroke-miterlimit:10;}
	.st27{fill:none;stroke:#111111;stroke-width:9;stroke-miterlimit:10;}
	.st28{fill:#E55F63;}
</style>
<g>
	<g>
		<g>
			<path class="st25" d="M12.3,151.2c-3.6,0-7-1.7-9.3-4.7c-1.9-2.4-3-5.6-3-9l0-80.6h102v79.5c0.1,7.2-4.4,14.7-12.1,14.8H12.5
				C12.4,151.2,12.4,151.2,12.3,151.2z M12.4,136.9C12.4,136.9,12.4,136.9,12.4,136.9L12.4,136.9C12.4,136.9,12.4,136.9,12.4,136.9z
				 M14.4,71.3v65.6h73.3c0-0.1,0-0.3,0-0.4l0-65.2H14.4z"/>
		</g>
		<g>
			<path class="st25" d="M88.1,58.6H73.7v-20c0-14-9.8-24.2-23.2-24.2c-13.4,0-23.2,10.2-23.2,24.2v20H13v-20C13,16.6,29.1,0,50.5,0
				C72,0,88.1,16.6,88.1,38.6V58.6z"/>
		</g>
	</g>
	<g>
		<g>
			<circle class="st25" cx="50.5" cy="96" r="11.6"/>
		</g>
		<g>
			<polygon class="st25" points="59.4,122.5 41.7,122.5 45.8,102.1 55.3,102.1 			"/>
		</g>
	</g>
</g>
</svg>
