<?xml version="1.0" encoding="utf-8"?>
<!-- Generator: Adobe Illustrator 22.1.0, SVG Export Plug-In . SVG Version: 6.00 Build 0)  -->
<svg version="1.1" id="Camada_1" xmlns="http://www.w3.org/2000/svg" xmlns:xlink="http://www.w3.org/1999/xlink" x="0px" y="0px"
	 viewBox="0 0 93 144.6" style="enable-background:new 0 0 93 144.6;" xml:space="preserve">
<style type="text/css">
	.st0{clip-path:url(#SVGID_2_);fill:url(#SVGID_3_);}
	.st1{opacity:0.38;clip-path:url(#SVGID_2_);fill:url(#SVGID_4_);}
	.st2{clip-path:url(#SVGID_2_);fill:url(#SVGID_5_);}
	.st3{fill:#4D4D4D;}
	.st4{clip-path:url(#SVGID_7_);}
	.st5{fill:#151515;}
	.st6{fill:url(#SVGID_8_);}
	.st7{fill:url(#SVGID_9_);}
	.st8{fill:#C85D64;}
	.st9{fill:#CE7358;}
	.st10{fill:#C34344;}
	.st11{fill:#D68C6A;}
	.st12{fill:#D2804A;}
	.st13{fill:url(#SVGID_10_);}
	.st14{fill:none;stroke:#151515;stroke-width:8;stroke-linejoin:round;stroke-miterlimit:10;}
	.st15{fill:none;stroke:#000000;stroke-width:9;stroke-miterlimit:10;}
	.st16{fill:url(#SVGID_11_);}
	.st17{fill:url(#SVGID_12_);}
	.st18{fill:url(#SVGID_13_);}
	.st19{fill:none;stroke:#FFFFFF;stroke-width:5;stroke-miterlimit:10;}
	.st20{fill:#FFFFFF;}
	.st21{fill:none;stroke:#000000;stroke-width:11;stroke-miterlimit:10;}
	.st22{fill:none;stroke:#000000;stroke-width:8;stroke-miterlimit:10;}
	.st23{fill:url(#SVGID_14_);}
	.st24{fill:none;stroke:#666666;stroke-miterlimit:10;}
	.st25{fill:#111111;}
	.st26{fill:none;stroke:#111111;stroke-width:11;stroke-miterlimit:10;}
	.st27{fill:none;stroke:#111111;stroke-width:9;stroke-miterlimit:10;}
	.st28{fill:#E55F63;}
</style>
<g>
	<g>
		<path class="st25" d="M70.2,0H22.8C10.2,0,0,10.2,0,22.8v98.9c0,12.6,10.2,22.8,22.8,22.8h47.3c12.6,0,22.8-10.2,22.8-22.8V22.8
			C93,10.2,82.8,0,70.2,0z M78.7,121.9c0,4.7-3.8,8.5-8.5,8.5H22.8c-4.7,0-8.5-3.8-8.5-8.5v-99c0-4.7,3.8-8.5,8.5-8.5h47.3
			c4.7,0,8.5,3.8,8.5,8.5V121.9z"/>
	</g>
	<g>
		<path class="st25" d="M82.4,107.2H8.1c-2.2,0-4-1.8-4-4v-3.8c0-2.2,1.8-4,4-4h74.3c2.2,0,4,1.8,4,4v3.8
			C86.4,105.4,84.6,107.2,82.4,107.2z"/>
	</g>
	<g>
		<path class="st25" d="M47.7,126.8H44c-3.3,0-6-2.7-6-6v-3.7c0-3.3,2.7-6,6-6h3.7c3.3,0,6,2.7,6,6v3.7
			C53.7,124.1,51,126.8,47.7,126.8z"/>
	</g>
	<g>
		<g>
			<g>
				<g>
					<g>
						<path class="st25" d="M44.4,77.9v-5.3c-7-1.1-10.2-6.3-10.5-10.4l6.9-1.5c0.2,2.9,2.2,5.5,6.5,5.5c2.5,0,4.3-1.2,4.3-3.1
							c0-1.4-1.1-2.4-3.1-2.8l-4.4-1c-5.6-1.3-9-4.7-9-9.4c0-5.6,4.2-9.4,9.4-10.3v-5.4h5.7v5.5c5.5,1.2,7.9,5.1,8.6,8.5l-6.9,1.8
							c-0.3-1.5-1.1-4.1-5.1-4.1c-2.8,0-4.2,1.6-4.2,3.2c0,1.3,1,2.4,2.9,2.8l4.3,0.9c6.7,1.5,9.3,5.4,9.3,9.8c0,4.6-3.3,8.8-9,9.9
							v5.4H44.4z"/>
					</g>
				</g>
			</g>
		</g>
	</g>
</g>
</svg>
