<?xml version="1.0" encoding="utf-8"?>
<!-- Generator: Adobe Illustrator 22.1.0, SVG Export Plug-In . SVG Version: 6.00 Build 0)  -->
<svg version="1.1" id="Camada_1" xmlns="http://www.w3.org/2000/svg" xmlns:xlink="http://www.w3.org/1999/xlink" x="0px" y="0px"
	 viewBox="0 0 317 132.4" style="enable-background:new 0 0 317 132.4;" xml:space="preserve">
<style type="text/css">
	.st0{clip-path:url(#SVGID_2_);fill:url(#SVGID_3_);}
	.st1{opacity:0.38;clip-path:url(#SVGID_2_);fill:url(#SVGID_4_);}
	.st2{clip-path:url(#SVGID_2_);fill:url(#SVGID_5_);}
	.st3{fill:#4D4D4D;}
	.st4{clip-path:url(#SVGID_7_);}
	.st5{fill:#151515;}
	.st6{fill:url(#SVGID_8_);}
	.st7{fill:url(#SVGID_9_);}
	.st8{fill:#C85D64;}
	.st9{fill:#CE7358;}
	.st10{fill:#C34344;}
	.st11{fill:#D68C6A;}
	.st12{fill:#D2804A;}
	.st13{fill:url(#SVGID_10_);}
	.st14{fill:none;stroke:#151515;stroke-width:8;stroke-linejoin:round;stroke-miterlimit:10;}
	.st15{fill:none;stroke:#000000;stroke-width:9;stroke-miterlimit:10;}
	.st16{fill:url(#SVGID_11_);}
	.st17{fill:url(#SVGID_12_);}
	.st18{fill:url(#SVGID_13_);}
	.st19{fill:none;stroke:#FFFFFF;stroke-width:5;stroke-miterlimit:10;}
	.st20{fill:#FFFFFF;}
	.st21{fill:none;stroke:#000000;stroke-width:11;stroke-miterlimit:10;}
	.st22{fill:none;stroke:#000000;stroke-width:8;stroke-miterlimit:10;}
	.st23{fill:url(#SVGID_14_);}
	.st24{fill:none;stroke:#666666;stroke-miterlimit:10;}
	.st25{fill:#111111;}
	.st26{fill:none;stroke:#111111;stroke-width:11;stroke-miterlimit:10;}
	.st27{fill:none;stroke:#111111;stroke-width:9;stroke-miterlimit:10;}
	.st28{fill:#E55F63;}
</style>
<g>
	<g>
		<path class="st20" d="M186.5,83l10.3,3.1c-1.2,4.2-3.7,7.7-7.3,10.4c-3.6,2.7-8.1,4.1-13.5,4.1c-6.6,0-12.1-2.2-16.7-6.6
			c-4.6-4.4-6.9-10.4-6.9-17.8c0-7.1,2.2-12.8,6.7-17.3c4.5-4.5,9.7-6.7,15.8-6.7c7.1,0,12.6,2.1,16.6,6.3c4,4.2,6,10,6,17.4
			c0,0.5,0,1.1,0,1.7c0,0.6,0,1.1,0,1.5l-0.1,0.7h-32.7c0.1,3,1.3,5.4,3.5,7.4c2.2,2,4.9,3,8,3C181.4,89.9,184.9,87.6,186.5,83z
			 M164.9,71.1h20.4c-0.1-2.5-1-4.7-2.7-6.4c-1.7-1.7-4.2-2.6-7.5-2.6c-3,0-5.4,0.9-7.2,2.8S165,68.8,164.9,71.1z"/>
		<path class="st20" d="M219.6,99.1h-12.4V31.9h12.4V99.1z"/>
		<path class="st20" d="M228.9,86.4l10.6-2.3c0.1,2,0.9,3.6,2.4,5c1.5,1.3,3.5,2,6,2c1.9,0,3.4-0.4,4.5-1.3c1.1-0.9,1.6-2,1.6-3.3
			c0-2.3-1.6-3.8-4.9-4.5l-6-1.4c-4.3-0.9-7.5-2.6-9.6-5c-2.1-2.4-3.2-5.3-3.2-8.6c0-4.1,1.6-7.7,4.9-10.6c3.3-2.9,7.3-4.4,12.2-4.4
			c3.1,0,5.8,0.5,8.2,1.3c2.4,0.9,4.2,2,5.5,3.4c1.3,1.4,2.3,2.8,3,4.2c0.7,1.4,1.1,2.8,1.3,4.2l-10.3,2.3c-0.2-1.6-1-3-2.2-4.3
			c-1.2-1.2-3-1.9-5.3-1.9c-1.6,0-3,0.4-4.1,1.3c-1.1,0.9-1.7,2-1.7,3.3c0,2.2,1.4,3.6,4.2,4.1l6.5,1.4c4.4,0.9,7.8,2.6,10.1,5.1
			c2.3,2.5,3.5,5.4,3.5,8.9c0,4.1-1.5,7.6-4.6,10.6s-7.5,4.5-13.1,4.5c-3.2,0-6.1-0.5-8.6-1.4c-2.5-1-4.5-2.2-5.9-3.7
			c-1.4-1.5-2.4-3-3.2-4.6C229.5,89.3,229.1,87.8,228.9,86.4z"/>
		<path class="st20" d="M306.1,83l10.3,3.1c-1.2,4.2-3.7,7.7-7.3,10.4c-3.6,2.7-8.1,4.1-13.5,4.1c-6.6,0-12.1-2.2-16.7-6.6
			c-4.6-4.4-6.9-10.4-6.9-17.8c0-7.1,2.2-12.8,6.7-17.3c4.5-4.5,9.7-6.7,15.8-6.7c7.1,0,12.6,2.1,16.6,6.3c4,4.2,6,10,6,17.4
			c0,0.5,0,1.1,0,1.7c0,0.6,0,1.1,0,1.5l-0.1,0.7h-32.7c0.1,3,1.3,5.4,3.5,7.4c2.2,2,4.9,3,8,3C300.9,89.9,304.4,87.6,306.1,83z
			 M284.4,71.1h20.4c-0.1-2.5-1-4.7-2.7-6.4c-1.7-1.7-4.2-2.6-7.5-2.6c-3,0-5.4,0.9-7.2,2.8S284.6,68.8,284.4,71.1z"/>
	</g>
	<path class="st20" d="M133.1,113.5c-2.7-0.2-4.5-1.1-5.3-2.7c-0.8-1.6-1.7-4.1-2.9-6.9c-4.2-10.6-10.7-27.2-22.5-37.6
		c11.8-10.4,18.3-26.9,22.5-37.6c1.1-2.9,2.1-5.3,2.9-6.9c0.3-0.7,1.2-2.4,5.3-2.7V0H36.3L0,66.4l39,66h94.1V113.5z M49.8,113.5
		L21.7,66l25.8-47.1h61c-0.4,0.9-0.7,1.8-1.1,2.8c-5.1,13.1-13.8,35-29.3,35v18.9c15.5,0,24.1,21.9,29.3,35c0.4,1,0.8,1.9,1.1,2.8
		H49.8z"/>
</g>
</svg>
