<?xml version="1.0" encoding="utf-8"?>
<!-- Generator: Adobe Illustrator 22.1.0, SVG Export Plug-In . SVG Version: 6.00 Build 0)  -->
<svg version="1.1" id="Camada_1" xmlns="http://www.w3.org/2000/svg" xmlns:xlink="http://www.w3.org/1999/xlink" x="0px" y="0px"
	 viewBox="0 0 133.1 151.5" style="enable-background:new 0 0 133.1 151.5;" xml:space="preserve">
<style type="text/css">
	.st0{clip-path:url(#SVGID_2_);fill:url(#SVGID_3_);}
	.st1{opacity:0.38;clip-path:url(#SVGID_2_);fill:url(#SVGID_4_);}
	.st2{clip-path:url(#SVGID_2_);fill:url(#SVGID_5_);}
	.st3{fill:#4D4D4D;}
	.st4{clip-path:url(#SVGID_7_);}
	.st5{fill:#151515;}
	.st6{fill:url(#SVGID_8_);}
	.st7{fill:url(#SVGID_9_);}
	.st8{fill:#C85D64;}
	.st9{fill:#CE7358;}
	.st10{fill:#C34344;}
	.st11{fill:#D68C6A;}
	.st12{fill:#D2804A;}
	.st13{fill:url(#SVGID_10_);}
	.st14{fill:none;stroke:#151515;stroke-width:8;stroke-linejoin:round;stroke-miterlimit:10;}
	.st15{fill:none;stroke:#000000;stroke-width:9;stroke-miterlimit:10;}
	.st16{fill:url(#SVGID_11_);}
	.st17{fill:url(#SVGID_12_);}
	.st18{fill:url(#SVGID_13_);}
	.st19{fill:none;stroke:#FFFFFF;stroke-width:5;stroke-miterlimit:10;}
	.st20{fill:#FFFFFF;}
	.st21{fill:none;stroke:#000000;stroke-width:11;stroke-miterlimit:10;}
	.st22{fill:none;stroke:#000000;stroke-width:8;stroke-miterlimit:10;}
	.st23{fill:url(#SVGID_14_);}
	.st24{fill:none;stroke:#666666;stroke-miterlimit:10;}
	.st25{fill:#111111;}
	.st26{fill:none;stroke:#111111;stroke-width:11;stroke-miterlimit:10;}
	.st27{fill:none;stroke:#111111;stroke-width:9;stroke-miterlimit:10;}
</style>
<g>
	<g>
		<path class="st25" d="M65.8,151.5c-4,0-8-1.1-11.6-3.3c-14-8.5-38.7-25.6-46.8-45.3c-8.1-19.6-7.6-46.9-7.3-60
			c0.2-11.7,9.1-21.6,20.8-22.9c7.7-0.9,14.6-2.8,20.3-5.5c6.7-3.2,12.2-7.7,15.7-10.8c5.3-4.8,13.2-4.8,18.5,0
			c3.5,3.1,9,7.6,15.7,10.8c5.8,2.8,12.6,4.6,20.3,5.5c11.6,1.4,20.6,11.2,20.8,22.9v0c0,2.6,0.2,5.3,0.4,8.3
			c0.8,13.8,1.8,31-7.8,52c-8.3,18.1-32.8,35.8-46.7,44.7C74.3,150.3,70.1,151.5,65.8,151.5z M66.1,14.6
			c-4.2,3.8-10.7,8.9-18.7,12.7c-7.2,3.5-15.6,5.8-24.9,6.8c-4.5,0.5-8,4.4-8.1,8.9c-0.2,12.2-0.7,37.5,6.3,54.3
			c6.8,16.5,30.9,32.4,40.9,38.5c2.7,1.6,6,1.6,8.6-0.1c21.3-13.7,36.4-27.8,41.4-38.6c8.2-17.7,7.3-32.3,6.5-45.2
			c-0.2-3.1-0.4-6-0.4-8.9l0,0c-0.1-4.5-3.5-8.4-8.1-8.9c-9.3-1.1-17.7-3.4-24.9-6.8C76.9,23.5,70.3,18.4,66.1,14.6z"/>
	</g>
	<g>
		<path class="st25" d="M66.3,115.3c-21,0-38-17.1-38-38s17.1-38,38-38c21,0,38,17.1,38,38S87.3,115.3,66.3,115.3z M66.3,51
			c-14.5,0-26.3,11.8-26.3,26.3s11.8,26.3,26.3,26.3s26.3-11.8,26.3-26.3S80.8,51,66.3,51z"/>
	</g>
	<g>
		<g>
			<g>
				<g>
					<g>
						<path class="st25" d="M64.2,99v-5.3c-7-1.1-10.2-6.3-10.5-10.4l6.9-1.5c0.2,2.9,2.2,5.5,6.5,5.5c2.5,0,4.3-1.2,4.3-3.1
							c0-1.4-1.1-2.4-3.1-2.8l-4.4-1c-5.6-1.3-9-4.7-9-9.4c0-5.6,4.2-9.4,9.4-10.3v-5.4h5.7v5.5c5.5,1.2,7.9,5.1,8.6,8.5L71.7,71
							c-0.3-1.5-1.1-4.1-5.1-4.1c-2.8,0-4.2,1.6-4.2,3.2c0,1.3,1,2.4,2.9,2.8l4.3,0.9c6.7,1.5,9.3,5.4,9.3,9.8c0,4.6-3.3,8.8-9,9.9
							V99H64.2z"/>
					</g>
				</g>
			</g>
		</g>
	</g>
</g>
</svg>
