<?xml version="1.0" encoding="utf-8"?>
<!-- Generator: Adobe Illustrator 22.1.0, SVG Export Plug-In . SVG Version: 6.00 Build 0)  -->
<svg version="1.1" id="Camada_1" xmlns="http://www.w3.org/2000/svg" xmlns:xlink="http://www.w3.org/1999/xlink" x="0px" y="0px"
	 viewBox="0 0 233 233.1" style="enable-background:new 0 0 233 233.1;" xml:space="preserve">
<style type="text/css">
	.st0{fill:#FFFFFF;}
</style>
<g>
	<path class="st0" d="M232.3,116.8c0,19.4,0.1,38.8,0,58.2c-0.1,31.3-26,57.3-57.3,57.4c-39.1,0.1-78.2,0.1-117.4,0
		c-28.5-0.1-53.6-22.6-56.4-51.1c-0.9-8.7-0.5-17.6-0.5-26.3c0-32.1-0.1-64.3,0-96.4C0.8,26.7,26.6,0.8,58.4,0.7
		c38.8-0.1,77.5-0.1,116.3,0c31.6,0,57.6,26.1,57.6,57.6C232.3,77.8,232.3,97.3,232.3,116.8z M116.2,215.8c19.2,0,38.4,0,57.6,0
		c23.8,0,41.9-18.1,41.9-41.9c0-38.3,0-76.5,0-114.8c0-23.8-18.1-41.9-41.9-41.9c-32.2,0-64.4,0-96.7,0c-8.2,0-16.4-0.3-24.5,0.6
		C32.9,20,17.4,37.5,17.3,57.6c-0.1,39.3-0.1,78.6,0,117.9c0,8.4,2.6,16.1,7.5,22.9c8.4,11.5,19.9,17.3,34,17.4
		C78,215.9,97.1,215.8,116.2,215.8z"/>
	<path class="st0" d="M58.6,116.4c0.1-32.1,26.3-57.9,58.5-57.7c31.6,0.2,57.4,26.5,57.3,58.5c-0.1,31.7-26.5,57.5-58.7,57.4
		C84.5,174.3,58.5,147.9,58.6,116.4z M116.4,157.9c22.8,0,41.4-18.4,41.5-41.1c0.1-23-18.3-41.6-41.1-41.6
		c-22.9-0.1-41.5,18.4-41.6,41.2C75.1,139.3,93.6,157.9,116.4,157.9z"/>
	<path class="st0" d="M199.2,50.3c0,9.1-7.5,16.6-16.6,16.6c-8.9,0-16.5-7.5-16.5-16.5c0-9.1,7.5-16.6,16.6-16.6
		C191.7,33.8,199.2,41.4,199.2,50.3z"/>
</g>
</svg>
