<?xml version="1.0" encoding="utf-8"?>
<!-- Generator: Adobe Illustrator 22.1.0, SVG Export Plug-In . SVG Version: 6.00 Build 0)  -->
<svg version="1.1" id="Camada_1" xmlns="http://www.w3.org/2000/svg" xmlns:xlink="http://www.w3.org/1999/xlink" x="0px" y="0px"
	 viewBox="0 0 233 233.1" style="enable-background:new 0 0 233 233.1;" xml:space="preserve">
<style type="text/css">
	.st0{fill:#FFFFFF;}
</style>
<path class="st0" d="M227.7,2.6c-1.6-1-3.4-1.7-5.2-2.6c-70.7,0-141.3,0-212,0c-3,1.2-6.1,2.4-7.9,5.3c-1,1.6-1.7,3.5-2.6,5.2
	c0,70.7,0,141.4,0,212.1c0.4,1,0.7,2,1.2,2.9c2.5,5.1,6.6,7.5,12.2,7.6c8.1,0,16.2,0,24.3,0l179.3,0.1c8.2,0.1,14-3,16-11
	c0-70.5,0-141.1,0-211.6C231.8,7.4,230.6,4.4,227.7,2.6z M64.7,207.2c-7,0.2-14,0.2-21,0.1c-6.1-0.1-8.5-2.6-8.6-8.6
	c-0.2-33.9-0.4-67.9-0.6-101.9c0-5.6,2.6-8.4,8.1-8.6c7.3-0.3,14.6-0.3,22-0.1c5.9,0.1,8.4,2.8,8.5,8.7c0.1,17,0.2,34,0.3,50.9
	c0.1,16.6,0.2,33.3,0.3,49.9C73.8,204.8,71.7,207.1,64.7,207.2z M53.9,79.7C40.4,79.8,29.4,68.8,29.3,55
	C29.2,41.6,40,30.6,53.5,30.5C67.2,30.4,78,41.2,78.1,55.1C78.1,68.6,67.4,79.5,53.9,79.7z M197.4,206.5c-7.7,0.2-15.3,0.3-23,0.1
	c-6.1-0.1-8.2-2.4-8.2-8.7c-0.1-18.5-0.1-37-0.4-55.5c-0.1-3.8-0.9-7.6-1.9-11.2c-2-7.2-7.1-11.2-14.4-11.9
	c-7.4-0.8-13.9,1.6-17.3,8.3c-2.5,4.9-4.4,10.6-4.5,16c-0.5,17.6,0,35.3,0.1,53c0,8.4-1.9,10.3-10.2,10.4c-6.7,0.1-13.3,0.2-20,0.1
	c-6.3-0.1-8.3-2.3-8.4-8.5c-0.2-34-0.4-68-0.6-101.9c0-6.3,2.2-8.6,8.7-8.7s13-0.1,19.5-0.1c8,0,9.9,1.9,10.4,9.9
	c0,0.6,0.2,1.2,0.4,2.8c6-7.6,13.3-12.1,22.1-13.3c16.3-2.1,32.1-1.9,43.9,12.2c7.2,8.7,10.1,19.2,10.6,30.1
	c1,22.8,1.1,45.6,1.5,68.4C205.8,203.9,203.5,206.3,197.4,206.5z"/>
</svg>
