<?xml version="1.0" encoding="utf-8"?>
<!-- Generator: Adobe Illustrator 22.1.0, SVG Export Plug-In . SVG Version: 6.00 Build 0)  -->
<svg version="1.1" id="Camada_1" xmlns="http://www.w3.org/2000/svg" xmlns:xlink="http://www.w3.org/1999/xlink" x="0px" y="0px"
	 viewBox="0 0 132 127.3" style="enable-background:new 0 0 132 127.3;" xml:space="preserve">
<style type="text/css">
	.st0{clip-path:url(#SVGID_2_);fill:url(#SVGID_3_);}
	.st1{opacity:0.38;clip-path:url(#SVGID_2_);fill:url(#SVGID_4_);}
	.st2{clip-path:url(#SVGID_2_);fill:url(#SVGID_5_);}
	.st3{fill:#4D4D4D;}
	.st4{clip-path:url(#SVGID_7_);}
	.st5{fill:#151515;}
	.st6{fill:url(#SVGID_8_);}
	.st7{fill:url(#SVGID_9_);}
	.st8{fill:#C85D64;}
	.st9{fill:#CE7358;}
	.st10{fill:#C34344;}
	.st11{fill:#D68C6A;}
	.st12{fill:#D2804A;}
	.st13{fill:url(#SVGID_10_);}
	.st14{fill:none;stroke:#151515;stroke-width:8;stroke-linejoin:round;stroke-miterlimit:10;}
	.st15{fill:none;stroke:#000000;stroke-width:9;stroke-miterlimit:10;}
	.st16{fill:url(#SVGID_11_);}
	.st17{fill:url(#SVGID_12_);}
	.st18{fill:url(#SVGID_13_);}
	.st19{fill:none;stroke:#FFFFFF;stroke-width:5;stroke-miterlimit:10;}
	.st20{fill:#FFFFFF;}
	.st21{fill:none;stroke:#000000;stroke-width:11;stroke-miterlimit:10;}
	.st22{fill:none;stroke:#000000;stroke-width:8;stroke-miterlimit:10;}
	.st23{fill:url(#SVGID_14_);}
	.st24{fill:none;stroke:#666666;stroke-miterlimit:10;}
	.st25{fill:#111111;}
	.st26{fill:none;stroke:#111111;stroke-width:11;stroke-miterlimit:10;}
	.st27{fill:none;stroke:#111111;stroke-width:9;stroke-miterlimit:10;}
</style>
<g>
	<g>
		<g>
			<g>
				<g>
					<g>
						<g>
							<path class="st25" d="M46.8,71.2v-5.3c-7-1.1-10.2-6.3-10.5-10.4l6.9-1.5c0.2,2.9,2.2,5.5,6.5,5.5c2.5,0,4.3-1.2,4.3-3.1
								c0-1.4-1.1-2.4-3.1-2.8l-4.4-1c-5.6-1.3-9-4.7-9-9.4c0-5.6,4.2-9.4,9.4-10.3v-5.4h5.7v5.5c5.5,1.2,7.9,5.1,8.6,8.5l-6.9,1.8
								c-0.3-1.5-1.1-4.1-5.1-4.1c-2.8,0-4.2,1.6-4.2,3.2c0,1.3,1,2.4,2.9,2.8l4.3,0.9c6.7,1.5,9.3,5.4,9.3,9.8c0,4.6-3.3,8.8-9,9.9
								v5.4H46.8z"/>
						</g>
					</g>
				</g>
			</g>
		</g>
		<g>
			<g>
				<g>
					<path class="st25" d="M54.2,99.5c-27.4,2.4-51.6-17.9-54-45.3s17.9-51.6,45.3-54s51.6,17.9,54,45.3
						C101.9,72.9,81.6,97.1,54.2,99.5z M46.6,12.8C26.2,14.6,11,32.6,12.8,53.1s19.9,35.6,40.3,33.8s35.6-19.9,33.8-40.3
						S67.1,11,46.6,12.8z"/>
				</g>
			</g>
		</g>
	</g>
	<g>
		<g>
			<path d="M128.1,105.5L96.7,75.8c-3.6,7.4-8.8,13.7-15,18.6l31.6,29.9c2.1,2,4.8,3,7.4,3c3.2,0,6.3-1.5,8.6-4.3
				C133.3,117.8,132.8,110,128.1,105.5z"/>
		</g>
	</g>
</g>
</svg>
